---
layout: anime

title: Kyoukai no Kanata
image: https://static.zerochan.net/Kyoukai.no.Kanata.full.1903992.jpg
mal: 18153
anidb: 9518
r720: true
r1080: true

desc: >-
  Here it is folks, the highest quality release out there all in one spot for you. This release takes all of the highest quality releases and shoves it all together. First, we have the 1080p video taken from the glorious release group Beatrice-Raws. 720p video is taken from Winter, which seems to be the best known for 720p releases. Audio for both releases is taken from RH (720p is encoded to AAC by yours truly). Subtitles/signs come from UTW, modified by SBR (and I did some slight timing fixes). Subs come from eru for the OVA, also modified by SBR.
  <br><br>
  I've even made english audio default to fit in with the standards <span style="font-size: 10px;">(even though the mc's voice sounds like a fat 40 yo)</span>. Ahm, anyways I even bothered to create a torrent since I've got a seedbox for now.

status: Complete
groups: Beatrice-Raws, Winter, RH, UTW, SBR, eru
vidinfo: .mkv, h264 10-bit

size720: ~700 MB / Episode @ 720p (1280x720) [Winter]
audio720a: English 2ch AAC (Main Dialogue) [RH]
audio720b: Japanese 2ch AAC (Main Dialogue) [RH]


size1080: ~1.5 GB / Episode @ 1080p (1920x1080) [Beatrice-Raws]
audio1080a: English 2ch FLAC (Main Dialogue) [RH]
audio1080b: Japanese 2ch FLAC (Main Dialogue) [RH]

subtitle1: English Signs/Songs (.ass) [(CyC & SBR Modified) UTW]
subtitle2: English Dialogue (.ass) [(CyC & SBR Modified) UTW]

nyaa720: https://nyaa.si/view/997889
at720: https://animetosho.org/view/cyc-kyoukai-no-kanata-bd-720p-hi10-x264.n997889
ant720: https://animetorrents.me/torrent-details.php?torid=33785
ab720: https://animebytes.tv/torrents.php?id=16555&torrentid=347713
abs720: https://animebytes.tv/torrents.php?id=18576&torrentid=352248
abstype720: Special

nyaa1080: https://nyaa.si/view/997890
at1080: https://animetosho.org/view/cyc-kyoukai-no-kanata-bd-1080p-hi10-x264.n997890
ant1080: https://animetorrents.me/torrent-details.php?torid=33786
ab1080: https://animebytes.tv/torrents.php?id=16555&torrentid=343247
abs1080: https://animebytes.tv/torrents.php?id=18576&torrentid=352249
abstype1080: Special

github: https://github.com/cyc-anime/Kyoukai-no-Kanata
---
General
Unique ID                                : 197623991966026116011748807906954487625 (0x94ACFF1321A01A45B8968C9D8ED2A749)
Complete name                            : [CyC] Kyoukai no Kanata 01 (BD 720p Hi10 x264 AAC) [Dual-Audio] [0CA6E269].mkv
Format                                   : Matroska
Format version                           : Version 4 / Version 2
File size                                : 717 MiB
Duration                                 : 23 min 41 s
Overall bit rate                         : 4 231 kb/s
Movie name                               : Carmine
Encoded date                             : UTC 2018-01-14 21:29:47
Writing application                      : mkvmerge v9.7.1 ('Pandemonium') 64bit
Writing library                          : libebml v1.3.4 + libmatroska v1.4.5
Attachments                              : corbel.ttf / Designosaur-Italic.ttf / Designosaur-Regular.ttf / GandhiSans-Bold.otf / GandhiSans-BoldItalic.otf / Helvetica Bold.ttf / KozGoProH-Madoka.ttf / mentone-semibol.otf / playtime.ttf / Yryr minc R.ttf / ANDYB.TTF / arial.ttf / BeeMarkerInk.TTF

Video
ID                                       : 1
Format                                   : AVC
Format/Info                              : Advanced Video Codec
Format profile                           : High 10@L4.1
Format settings, CABAC                   : Yes
Format settings, RefFrames               : 9 frames
Codec ID                                 : V_MPEG4/ISO/AVC
Duration                                 : 23 min 41 s
Bit rate                                 : 3 550 kb/s
Width                                    : 1 280 pixels
Height                                   : 720 pixels
Display aspect ratio                     : 16:9
Frame rate mode                          : Constant
Frame rate                               : 23.976 (24000/1001) FPS
Color space                              : YUV
Chroma subsampling                       : 4:2:0
Bit depth                                : 10 bits
Scan type                                : Progressive
Bits/(Pixel*Frame)                       : 0.161
Stream size                              : 601 MiB (84%)
Title                                    : Winter
Writing library                          : x264 core 132 r2309 3b1f1f7
Encoding settings                        : cabac=1 / ref=9 / deblock=1:-2:-2 / analyse=0x3:0x133 / me=umh / subme=9 / psy=1 / psy_rd=0.90:0.00 / mixed_ref=1 / me_range=24 / chroma_me=1 / trellis=2 / 8x8dct=1 / cqm=0 / deadzone=21,11 / fast_pskip=1 / chroma_qp_offset=-2 / threads=12 / lookahead_threads=2 / sliced_threads=0 / nr=0 / decimate=0 / interlaced=0 / bluray_compat=0 / constrained_intra=0 / bframes=8 / b_pyramid=2 / b_adapt=2 / b_bias=0 / direct=1 / weightb=1 / open_gop=0 / weightp=2 / keyint=250 / keyint_min=23 / scenecut=40 / intra_refresh=0 / rc=crf / mbtree=0 / crf=15.8 / qcomp=0.70 / qpmin=9 / qpmax=40 / qpstep=4 / ip_ratio=1.40 / pb_ratio=1.30 / aq=1:0.90 / zones=3923,5336,b=1.3/16022,16873,b=1.3/30790,31801,b=1.3/33686,33995,b=1.3
Language                                 : Japanese
Default                                  : No
Forced                                   : No

Audio #1
ID                                       : 2
Format                                   : AAC
Format/Info                              : Advanced Audio Codec
Format profile                           : LC
Codec ID                                 : A_AAC
Duration                                 : 23 min 41 s
Bit rate                                 : 330 kb/s
Channel(s)                               : 2 channels
Channel positions                        : Front: L R
Sampling rate                            : 48.0 kHz
Frame rate                               : 46.875 FPS (1024 SPF)
Compression mode                         : Lossy
Stream size                              : 55.9 MiB (8%)
Title                                    : (Encoded) RH
Language                                 : English
Default                                  : Yes
Forced                                   : No

Audio #2
ID                                       : 3
Format                                   : AAC
Format/Info                              : Advanced Audio Codec
Format profile                           : LC
Codec ID                                 : A_AAC
Duration                                 : 23 min 41 s
Bit rate                                 : 331 kb/s
Channel(s)                               : 2 channels
Channel positions                        : Front: L R
Sampling rate                            : 48.0 kHz
Frame rate                               : 46.875 FPS (1024 SPF)
Compression mode                         : Lossy
Stream size                              : 56.1 MiB (8%)
Title                                    : (Encoded) RH
Language                                 : Japanese
Default                                  : No
Forced                                   : No

Text #1
ID                                       : 4
Format                                   : ASS
Codec ID                                 : S_TEXT/ASS
Codec ID/Info                            : Advanced Sub Station Alpha
Duration                                 : 21 min 8 s
Bit rate                                 : 2 418 b/s
Count of elements                        : 2422
Compression mode                         : Lossless
Stream size                              : 375 KiB (0%)
Title                                    : (SBR Modified) UTW - Signs/Songs
Language                                 : English
Default                                  : Yes
Forced                                   : No

Text #2
ID                                       : 5
Format                                   : ASS
Codec ID                                 : S_TEXT/ASS
Codec ID/Info                            : Advanced Sub Station Alpha
Duration                                 : 23 min 34 s
Bit rate                                 : 2 285 b/s
Count of elements                        : 2775
Compression mode                         : Lossless
Stream size                              : 395 KiB (0%)
Title                                    : (SBR Modified) UTW - Full Subtitles
Language                                 : Japanese
Default                                  : No
Forced                                   : No

Menu
00:00:00.000                             : en:Prologue
00:02:31.500                             : en:Opening
00:04:01.992                             : en:Part 1
00:12:52.981                             : en:Part 2
00:22:06.408                             : en:Ending
00:23:24.987                             : en:Preview
===
General
Unique ID                                : 248505436275443273494524408824323646347 (0xBAF467F699F68D189CA4338D597C238B)
Complete name                            : [CyC] Kyoukai no Kanata 01 (BD 1080p Hi10 x264 FLAC) [Dual-Audio] [92DCC478].mkv
Format                                   : Matroska
Format version                           : Version 4 / Version 2
File size                                : 1.57 GiB
Duration                                 : 23 min 41 s
Overall bit rate mode                    : Variable
Overall bit rate                         : 9 485 kb/s
Movie name                               : Carmine
Encoded date                             : UTC 2018-01-14 21:26:44
Writing application                      : mkvmerge v9.7.1 ('Pandemonium') 64bit
Writing library                          : libebml v1.3.4 + libmatroska v1.4.5
Attachments                              : KozGoProH-Madoka.ttf / mentone-semibol.otf / playtime.ttf / Yryr minc R.ttf / ANDYB.TTF / arial.ttf / BeeMarkerInk.TTF / corbel.ttf / Designosaur-Italic.ttf / Designosaur-Regular.ttf / GandhiSans-Bold.otf / GandhiSans-BoldItalic.otf / Helvetica Bold.ttf

Video
ID                                       : 1
Format                                   : AVC
Format/Info                              : Advanced Video Codec
Format profile                           : High 10@L5
Format settings, CABAC                   : Yes
Format settings, RefFrames               : 4 frames
Codec ID                                 : V_MPEG4/ISO/AVC
Duration                                 : 23 min 41 s
Bit rate                                 : 6 690 kb/s
Width                                    : 1 920 pixels
Height                                   : 1 080 pixels
Display aspect ratio                     : 16:9
Frame rate mode                          : Constant
Frame rate                               : 23.976 (24000/1001) FPS
Color space                              : YUV
Chroma subsampling                       : 4:2:0
Bit depth                                : 10 bits
Scan type                                : Progressive
Bits/(Pixel*Frame)                       : 0.135
Stream size                              : 1.11 GiB (71%)
Title                                    : Beatrice-Raws
Writing library                          : x264 core 135 r2345 f0c1c53
Encoding settings                        : cabac=1 / ref=4 / deblock=1:1:-1 / analyse=0x3:0x113 / me=umh / subme=9 / psy=1 / psy_rd=1.00:0.00 / mixed_ref=1 / me_range=32 / chroma_me=1 / trellis=2 / 8x8dct=1 / cqm=0 / deadzone=21,11 / fast_pskip=1 / chroma_qp_offset=-2 / threads=6 / lookahead_threads=1 / sliced_threads=0 / nr=0 / decimate=1 / interlaced=0 / bluray_compat=0 / constrained_intra=0 / bframes=9 / b_pyramid=2 / b_adapt=2 / b_bias=0 / direct=1 / weightb=1 / open_gop=0 / weightp=2 / keyint=240 / keyint_min=24 / scenecut=40 / intra_refresh=0 / rc=crf / mbtree=0 / crf=16.5 / qcomp=0.72 / qpmin=0 / qpmax=81 / qpstep=4 / ip_ratio=1.40 / pb_ratio=1.30 / aq=1:0.85
Language                                 : Japanese
Default                                  : Yes
Forced                                   : No
Color range                              : Limited
Color primaries                          : BT.709
Transfer characteristics                 : BT.709
Matrix coefficients                      : BT.709

Audio #1
ID                                       : 2
Format                                   : FLAC
Format/Info                              : Free Lossless Audio Codec
Codec ID                                 : A_FLAC
Duration                                 : 23 min 41 s
Bit rate mode                            : Variable
Bit rate                                 : 1 407 kb/s
Channel(s)                               : 2 channels
Channel positions                        : Front: L R
Sampling rate                            : 48.0 kHz
Frame rate                               : 11.719 FPS (4096 SPF)
Bit depth                                : 24 bits
Stream size                              : 238 MiB (15%)
Title                                    : RH
Writing library                          : libFLAC 1.3.1 (UTC 2014-11-25)
Language                                 : English
Default                                  : Yes
Forced                                   : No

Audio #2
ID                                       : 3
Format                                   : FLAC
Format/Info                              : Free Lossless Audio Codec
Codec ID                                 : A_FLAC
Duration                                 : 23 min 41 s
Bit rate mode                            : Variable
Bit rate                                 : 1 370 kb/s
Channel(s)                               : 2 channels
Channel positions                        : Front: L R
Sampling rate                            : 48.0 kHz
Frame rate                               : 11.719 FPS (4096 SPF)
Bit depth                                : 24 bits
Stream size                              : 232 MiB (14%)
Title                                    : RH
Writing library                          : libFLAC 1.3.1 (UTC 2014-11-25)
Language                                 : Japanese
Default                                  : No
Forced                                   : No

Text #1
ID                                       : 4
Format                                   : ASS
Codec ID                                 : S_TEXT/ASS
Codec ID/Info                            : Advanced Sub Station Alpha
Duration                                 : 21 min 8 s
Bit rate                                 : 2 418 b/s
Count of elements                        : 2422
Compression mode                         : Lossless
Stream size                              : 375 KiB (0%)
Title                                    : (SBR Modified) UTW - Signs/Songs
Language                                 : English
Default                                  : Yes
Forced                                   : No

Text #2
ID                                       : 5
Format                                   : ASS
Codec ID                                 : S_TEXT/ASS
Codec ID/Info                            : Advanced Sub Station Alpha
Duration                                 : 23 min 34 s
Bit rate                                 : 2 285 b/s
Count of elements                        : 2775
Compression mode                         : Lossless
Stream size                              : 395 KiB (0%)
Title                                    : (SBR Modified) UTW - Full Subtitles
Language                                 : Japanese
Default                                  : No
Forced                                   : No

Menu
00:00:00.000                             : en:Prologue
00:02:31.500                             : en:Opening
00:04:01.992                             : en:Part 1
00:12:52.981                             : en:Part 2
00:22:06.408                             : en:Ending
00:23:24.987                             : en:Preview